<?xml version="1.0" encoding="UTF-8"?> <!-- Generator: Adobe Illustrator 23.0.3, SVG Export Plug-In . SVG Version: 6.00 Build 0) --> <svg xmlns="http://www.w3.org/2000/svg" xmlns:xlink="http://www.w3.org/1999/xlink" id="Layer_1" x="0px" y="0px" viewBox="0 0 300.01 237.45" style="enable-background:new 0 0 300.01 237.45;" xml:space="preserve"> <style type="text/css"> .st0{fill:#01516C;} .st1{fill:#4EBBC1;} .st2{fill:#01445A;} .st3{fill:url(#SVGID_1_);} .st4{fill:url(#SVGID_2_);} .st5{fill:#93C01F;} .st6{fill:#009EE2;} .st7{fill:#6E65AA;} .st8{fill:url(#SVGID_3_);} .st9{fill:url(#SVGID_4_);} </style> <path class="st0" d="M149.03,72.18c-0.73,0.98-1.11,1.43-1.11,1.43s0.73-2.09,1.12-3.08c0.22-0.55-0.55-1.21-0.88-0.48 c-0.58,1.28-1.24,2.46-1.24,2.46s0.38-1.82,0.65-3.2c0.12-0.64-0.89-1.01-1.13-0.32c-0.46,1.38-0.93,3.09-0.93,3.09 s-0.01-1.34-0.14-2.52c-0.06-0.54-1.07-0.8-1.05,0.3c0.02,1.33,0.11,2.21,0.05,2.94c-0.02,0.21-0.14,1.05-0.41,0.63 c-0.19-0.3-0.59-1.01-0.77-1.32c-0.34-0.61-1.22-0.07-0.77,0.81c0.22,0.43,0.74,1.33,0.93,1.8c0.13,0.32,0.49,1.44,0.61,1.82 c-1.39,2.98-4.34,9.07-5.11,10.79c-1.84,2.85-3.83,6.73-5.15,9.68c-1.23,2.74,0.56,3.36,1.67,3.13c4.72-0.99,6.4-7.72,7.44-11.24 c1.51-3.27,3.2-9.07,3.55-11.67c0.04,0,0.07,0,0.07,0s0.57-0.53,0.7-0.77c1.04-0.63,2.11-2.66,2.53-3.58 C149.89,72.31,149.48,71.57,149.03,72.18z"></path> <path class="st0" d="M1.56,202.39C0.52,201.47,0,200.36,0,199.04v-39.87c0-1.31,0.51-2.43,1.53-3.35c1.02-0.92,2.26-1.37,3.73-1.37 h18.85c4.74,0,8.52,1.27,11.35,3.8c2.82,2.53,4.23,5.94,4.23,10.21c0,1.93-0.53,3.77-1.6,5.53s-2.48,3.16-4.23,4.19v0.28 c2.42,0.84,4.34,2.23,5.76,4.16c1.42,1.93,2.13,4.06,2.13,6.41c0,2.86-0.69,5.41-2.06,7.64c-1.38,2.23-3.3,3.97-5.76,5.21 c-2.47,1.24-5.29,1.87-8.46,1.87H5.27C3.83,203.76,2.6,203.3,1.56,202.39z M23.96,174.81c1.47,0,2.71-0.57,3.73-1.73 c1.02-1.15,1.53-2.55,1.53-4.19c0-1.78-0.47-3.18-1.42-4.19c-0.95-1.01-2.23-1.51-3.84-1.51h-13.8v11.62H23.96z M25.39,195.03 c1.8,0,3.24-0.53,4.3-1.58c1.07-1.06,1.6-2.48,1.6-4.26c0-1.83-0.52-3.25-1.56-4.26s-2.49-1.51-4.34-1.51H10.17v11.62h15.22V195.03z "></path> <g> <path class="st0" d="M54.15,202.7c-2.56-1.13-4.58-2.69-6.05-4.68c-1.47-2-2.21-4.26-2.21-6.8v-9.37c0-2.58,0.71-4.94,2.13-7.08 s3.41-3.81,5.97-5.04c2.56-1.22,5.45-1.83,8.68-1.83s6.12,0.61,8.68,1.83s4.55,2.9,5.98,5.04c1.42,2.14,2.13,4.5,2.13,7.08v9.37 c0,2.54-0.74,4.8-2.21,6.8s-3.49,3.56-6.05,4.68c-2.56,1.13-5.41,1.69-8.54,1.69S56.71,203.83,54.15,202.7z M67.88,194.6 c1.23-0.99,1.85-2.35,1.85-4.09v-8.17c0-1.83-0.63-3.31-1.89-4.44s-2.98-1.69-5.16-1.69s-3.9,0.56-5.16,1.69 c-1.26,1.13-1.89,2.61-1.89,4.44v8.17c0,1.74,0.62,3.1,1.85,4.09c1.23,0.99,2.96,1.48,5.19,1.48 C64.92,196.08,66.65,195.59,67.88,194.6z"></path> <path class="st0" d="M91.89,202.63c-2.49-1.17-4.47-2.77-5.94-4.79c-1.47-2.02-2.2-4.27-2.2-6.76v-9.02c0-2.63,0.75-5.04,2.24-7.22 c1.49-2.18,3.5-3.88,6.01-5.11c2.51-1.22,5.22-1.83,8.11-1.83c2.84,0,5.46,0.58,7.86,1.73c2.39,1.15,4.28,2.77,5.66,4.86 s2.06,4.45,2.06,7.08v3.8c0,1.13-0.43,2.08-1.28,2.85c-0.85,0.78-1.95,1.16-3.27,1.16H93.21v0.99c0,1.88,0.58,3.42,1.74,4.61 c1.16,1.2,2.88,1.8,5.16,1.8c2.23,0,3.86-0.48,4.91-1.44c1.04-0.96,1.56-2.17,1.56-3.63c0.95-0.09,1.66-0.14,2.13-0.14 c1.94,0,3.44,0.4,4.48,1.2s1.56,1.97,1.56,3.52c0,1.27-0.64,2.54-1.92,3.8c-1.28,1.27-3.05,2.3-5.3,3.1c-2.25,0.8-4.76,1.2-7.5,1.2 C97.09,204.39,94.38,203.81,91.89,202.63z M106.86,182.56v-0.99c0-1.88-0.63-3.37-1.89-4.47s-2.91-1.66-4.94-1.66 c-2.04,0-3.69,0.55-4.94,1.66c-1.26,1.1-1.89,2.59-1.89,4.47v0.99H106.86z"></path> </g> <path class="st0" d="M123.51,173.54c0-2.02,0.81-3.46,2.42-4.33s4.05-1.3,7.33-1.3v30.85c0,2.02-0.81,3.46-2.42,4.33 s-4.05,1.3-7.33,1.3V173.54z"></path> <path class="st0" d="M142.57,175.23c0-2.35,0.76-4.16,2.28-5.42c1.52-1.27,3.82-1.9,6.9-1.9v4.16c-0.71,0.75-1.31,1.55-1.78,2.39 l0.5,0.28c1.52-2.25,3.09-3.96,4.73-5.11s3.59-1.73,5.87-1.73c4.03,0,6.83,2,8.39,5.99c1.19-1.88,2.7-3.35,4.55-4.4 c1.85-1.06,3.94-1.58,6.26-1.58c3.22,0,5.8,1.17,7.72,3.52s2.88,5.33,2.88,8.95v18.38c0,2.02-0.78,3.46-2.35,4.33 c-1.56,0.87-3.98,1.3-7.26,1.3v-23.17c0-1.6-0.36-2.86-1.07-3.8c-0.71-0.94-1.83-1.41-3.34-1.41c-1.52,0-2.8,0.53-3.84,1.58 c-1.04,1.06-1.56,2.83-1.56,5.32v15.85c0,2.02-0.77,3.46-2.31,4.33s-3.92,1.3-7.15,1.3v-23.17c0-1.6-0.36-2.86-1.07-3.8 c-0.71-0.94-1.8-1.41-3.27-1.41c-3.65,0-5.48,2.42-5.48,7.25v15.5c0,2.02-0.78,3.46-2.35,4.33c-1.56,0.87-3.98,1.3-7.25,1.3V175.23z "></path> <path class="st0" d="M206.13,202.63c-2.49-1.17-4.47-2.77-5.94-4.79c-1.47-2.02-2.2-4.27-2.2-6.76v-9.02c0-2.63,0.75-5.04,2.24-7.22 c1.49-2.18,3.5-3.88,6.01-5.11c2.51-1.22,5.22-1.83,8.11-1.83c2.85,0,5.46,0.58,7.86,1.73c2.39,1.15,4.28,2.77,5.66,4.86 s2.06,4.45,2.06,7.08v3.8c0,1.13-0.43,2.08-1.28,2.85c-0.85,0.78-1.95,1.16-3.27,1.16h-17.93v0.99c0,1.88,0.58,3.42,1.74,4.61 c1.16,1.2,2.88,1.8,5.16,1.8c2.23,0,3.86-0.48,4.91-1.44c1.04-0.96,1.56-2.17,1.56-3.63c0.95-0.09,1.66-0.14,2.13-0.14 c1.94,0,3.44,0.4,4.48,1.2s1.56,1.97,1.56,3.52c0,1.27-0.64,2.54-1.92,3.8c-1.28,1.27-3.05,2.3-5.3,3.1c-2.25,0.8-4.76,1.2-7.5,1.2 C211.33,204.39,208.62,203.81,206.13,202.63z M221.1,182.56v-0.99c0-1.88-0.63-3.37-1.89-4.47s-2.91-1.66-4.94-1.66 c-2.04,0-3.69,0.55-4.94,1.66c-1.26,1.1-1.89,2.59-1.89,4.47v0.99H221.1z"></path> <path class="st0" d="M244.12,202.63c-2.49-1.17-4.47-2.77-5.94-4.79s-2.2-4.27-2.2-6.76v-9.02c0-2.63,0.75-5.04,2.24-7.22 c1.49-2.18,3.5-3.88,6.01-5.11c2.51-1.22,5.22-1.83,8.11-1.83c2.84,0,5.46,0.58,7.86,1.73c2.39,1.15,4.28,2.77,5.66,4.86 s2.06,4.45,2.06,7.08v3.8c0,1.13-0.43,2.08-1.28,2.85c-0.85,0.78-1.95,1.16-3.27,1.16h-17.93v0.99c0,1.88,0.58,3.42,1.74,4.61 c1.16,1.2,2.88,1.8,5.16,1.8c2.23,0,3.86-0.48,4.91-1.44c1.04-0.96,1.56-2.17,1.56-3.63c0.95-0.09,1.66-0.14,2.13-0.14 c1.94,0,3.44,0.4,4.48,1.2c1.04,0.8,1.56,1.97,1.56,3.52c0,1.27-0.64,2.54-1.92,3.8c-1.28,1.27-3.05,2.3-5.3,3.1 c-2.25,0.8-4.76,1.2-7.5,1.2C249.32,204.39,246.61,203.81,244.12,202.63z M259.09,182.56v-0.99c0-1.88-0.63-3.37-1.89-4.47 c-1.26-1.1-2.91-1.66-4.94-1.66c-2.04,0-3.69,0.55-4.94,1.66c-1.26,1.1-1.89,2.59-1.89,4.47v0.99H259.09z"></path> <path class="st0" d="M286.69,178.4c-1.75,1.46-2.63,3.29-2.63,5.49v14.86c0,2.02-0.8,3.46-2.38,4.33c-1.59,0.87-4.04,1.3-7.36,1.3 v-29.16c0-2.35,0.78-4.16,2.35-5.42c1.56-1.27,3.89-1.9,6.97-1.9v4.16c-0.71,0.75-1.3,1.55-1.78,2.39l0.5,0.28 c2.99-4.55,6.71-6.83,11.17-6.83c2.13,0,3.75,0.56,4.84,1.69c1.09,1.13,1.64,2.56,1.64,4.3c0,1.32-0.36,2.46-1.07,3.45 c-1.33-0.75-3.11-1.13-5.34-1.13C290.74,176.22,288.44,176.95,286.69,178.4z"></path> <g> <path class="st0" d="M52.41,144.31c0-1.21,0.4-2.14,1.21-2.79c0.81-0.65,2-0.98,3.59-0.98v2.14c-0.37,0.39-0.67,0.8-0.92,1.23 l0.26,0.15c0.73-1.11,1.67-1.98,2.8-2.59c1.14-0.62,2.4-0.92,3.79-0.92c1.22,0,2.3,0.28,3.24,0.83c0.94,0.56,1.68,1.32,2.22,2.3 c0.54,0.98,0.81,2.07,0.81,3.28v9.47c0,1.04-0.42,1.78-1.25,2.23s-2.09,0.67-3.77,0.67v-11.61c0-0.82-0.26-1.51-0.79-2.07 c-0.53-0.56-1.26-0.84-2.22-0.84c-1.17,0-2.13,0.38-2.86,1.12c-0.73,0.75-1.1,1.69-1.1,2.83v7.66c0,1.04-0.41,1.78-1.23,2.23 c-0.82,0.45-2.08,0.67-3.79,0.67L52.41,144.31L52.41,144.31z"></path> <path class="st0" d="M73.26,136.54c0-1.02,0.42-1.81,1.26-2.39s2.12-0.87,3.83-0.87v8.27c-0.42,0.29-0.68,0.53-0.81,0.73l0.15,0.18 c0.63-0.6,1.48-1.08,2.55-1.41c1.06-0.34,2.02-0.51,2.88-0.51c2.17,0,3.91,0.61,5.2,1.83s1.94,2.8,1.94,4.74v5.62 c0,1.26-0.32,2.39-0.97,3.39s-1.5,1.79-2.57,2.36c-1.06,0.57-2.19,0.85-3.39,0.85c-1.34,0-2.49-0.26-3.43-0.78 c-0.94-0.52-1.79-1.29-2.55-2.3l-0.18,0.14c0.12,0.22,0.35,0.53,0.7,0.94c0,0.63-0.35,1.12-1.06,1.47 c-0.71,0.35-1.89,0.53-3.55,0.53V136.54z M84.35,154.36c0.6-0.46,0.9-1.12,0.9-2v-4.9c0-0.85-0.3-1.5-0.9-1.96 c-0.6-0.46-1.46-0.69-2.58-0.69c-1.03,0-1.86,0.24-2.51,0.73c-0.65,0.48-0.97,1.08-0.97,1.78v5.22c0,0.73,0.32,1.32,0.97,1.8 c0.65,0.47,1.48,0.71,2.51,0.71C82.89,155.05,83.75,154.82,84.35,154.36z"></path> <path class="st0" d="M95.03,158.07c-1.44-0.83-2.16-1.95-2.16-3.36c0-0.63,0.28-1.16,0.82-1.6c0.55-0.44,1.44-0.65,2.66-0.65 c0.2,0.97,0.68,1.72,1.47,2.27c0.78,0.54,1.7,0.82,2.75,0.82c1.22,0,2.17-0.15,2.84-0.44c0.67-0.29,1.01-0.71,1.01-1.27 c0-0.48-0.27-0.91-0.81-1.27s-1.61-0.74-3.22-1.12c-1.88-0.44-3.34-0.88-4.38-1.32c-1.04-0.45-1.8-1.01-2.29-1.69 c-0.49-0.68-0.73-1.57-0.73-2.68c0-1.57,0.67-2.84,2-3.79c1.33-0.96,3.19-1.43,5.59-1.43c2.35,0,4.25,0.4,5.72,1.2 s2.2,1.86,2.2,3.19c0,0.68-0.26,1.17-0.77,1.47c-0.51,0.3-1.37,0.47-2.57,0.49c-0.32-0.92-0.8-1.6-1.45-2.05s-1.57-0.67-2.77-0.67 c-0.86,0-1.61,0.14-2.27,0.44s-0.99,0.64-0.99,1.05c0,0.46,0.28,0.82,0.82,1.09c0.55,0.27,1.47,0.53,2.77,0.8 c2.81,0.6,4.83,1.4,6.06,2.39s1.85,2.33,1.85,4.03c0,1.04-0.33,1.97-0.99,2.79c-0.66,0.82-1.61,1.46-2.86,1.9 c-1.25,0.45-2.71,0.67-4.4,0.67C98.43,159.33,96.47,158.91,95.03,158.07z"></path> </g> <g> <g> <path class="st1" d="M123.51,217.09c0-0.9,0.47-1.35,1.41-1.35v6.29c-0.21,0.22-0.37,0.41-0.48,0.57l0.05,0.09 c0.51-0.66,1.16-1.2,1.95-1.61c0.79-0.41,1.6-0.61,2.42-0.61c1.32,0,2.36,0.36,3.12,1.08s1.13,1.69,1.13,2.92v6.95 c0,0.87-0.47,1.3-1.41,1.3v-8.2c0-0.88-0.25-1.56-0.75-2.05c-0.5-0.48-1.25-0.72-2.23-0.72c-0.64,0-1.25,0.13-1.84,0.4 s-1.06,0.62-1.42,1.05s-0.54,0.89-0.54,1.36v6.86c0,0.87-0.47,1.3-1.41,1.3L123.51,217.09L123.51,217.09z"></path> <path class="st1" d="M138.61,232.18c-0.72-0.35-1.29-0.85-1.7-1.49c-0.41-0.64-0.61-1.37-0.61-2.19v-3.76 c0-0.8,0.21-1.53,0.63-2.18s1-1.16,1.73-1.54s1.54-0.57,2.44-0.57c0.88,0,1.68,0.19,2.41,0.56s1.31,0.88,1.73,1.54 c0.42,0.65,0.63,1.38,0.63,2.16v1.63c0,0.17-0.07,0.33-0.22,0.46s-0.3,0.2-0.48,0.2h-7.47v1.47c0,0.93,0.29,1.66,0.88,2.19 c0.59,0.53,1.42,0.79,2.51,0.79c1.08,0,1.92-0.24,2.52-0.73c0.6-0.49,0.9-1.16,0.9-2.01c0.29,0,0.55,0.1,0.78,0.31 s0.35,0.44,0.35,0.71c0,0.5-0.21,0.99-0.64,1.45c-0.43,0.47-0.99,0.84-1.68,1.11c-0.69,0.28-1.43,0.41-2.21,0.41 C140.17,232.72,139.33,232.54,138.61,232.18z M144.5,225.79v-1.06c0-0.88-0.31-1.6-0.94-2.16s-1.44-0.84-2.45-0.84 s-1.82,0.28-2.45,0.84c-0.63,0.56-0.94,1.28-0.94,2.16v1.06H144.5z"></path> <path class="st1" d="M149.74,231.89c-0.52-0.55-0.78-1.32-0.78-2.29v-12.55c0-0.87,0.47-1.3,1.41-1.3v13.83 c0,0.68,0.13,1.16,0.41,1.44c0.27,0.28,0.72,0.43,1.34,0.43c0.53,0,1.03-0.14,1.53-0.43c0.11,0.19,0.17,0.39,0.17,0.59 c0,0.3-0.17,0.56-0.51,0.78s-0.77,0.33-1.28,0.33C151.01,232.72,150.25,232.44,149.74,231.89z"></path> <path class="st1" d="M156.62,221.89c0-0.95,0.47-1.42,1.41-1.42v1.35l-0.48,0.61l0.05,0.09c1.1-1.37,2.41-2.06,3.94-2.06 c1.42,0,2.55,0.36,3.4,1.09s1.28,1.69,1.28,2.91v4.28c0,1.2-0.43,2.16-1.28,2.88c-0.85,0.73-1.98,1.09-3.38,1.09 c-1.53,0-2.84-0.64-3.94-1.91l-0.07,0.12l0.5,0.57v4.66c0,0.43-0.12,0.75-0.36,0.97s-0.6,0.33-1.07,0.33L156.62,221.89 L156.62,221.89z M163.93,230.71c0.6-0.49,0.91-1.15,0.91-1.99v-4.23c0-0.87-0.3-1.54-0.91-2.02c-0.61-0.48-1.44-0.72-2.51-0.72 c-0.61,0-1.17,0.12-1.7,0.35c-0.53,0.24-0.94,0.56-1.24,0.96s-0.45,0.84-0.45,1.31v4.47c0,0.76,0.31,1.38,0.94,1.87 s1.46,0.73,2.49,0.73S163.33,231.19,163.93,230.71z"></path> <path class="st1" d="M171.06,231.89c-0.52-0.55-0.78-1.32-0.78-2.29v-7.66h-2.05c0-0.41,0.1-0.72,0.3-0.93 c0.2-0.21,0.49-0.32,0.87-0.32h0.88v-2.46c0-0.43,0.12-0.75,0.37-0.97s0.6-0.33,1.06-0.33v3.76h3.18c0,0.39-0.11,0.7-0.32,0.92 c-0.21,0.22-0.51,0.33-0.9,0.33h-1.96v7.64c0,0.68,0.13,1.16,0.39,1.44s0.71,0.43,1.35,0.43c0.51,0,1.01-0.14,1.5-0.43 c0.11,0.16,0.17,0.35,0.17,0.59c0,0.3-0.17,0.56-0.51,0.78s-0.77,0.33-1.28,0.33C172.34,232.72,171.58,232.44,171.06,231.89z"></path> <path class="st1" d="M183.75,237.1c-0.32-0.23-0.48-0.51-0.48-0.84c0-0.22,0.06-0.4,0.19-0.54c0.19,0.13,0.43,0.23,0.7,0.32 c0.28,0.09,0.54,0.13,0.8,0.13c0.62,0,1.07-0.16,1.35-0.47c0.28-0.32,0.42-0.82,0.42-1.51V221.8c0-0.88,0.48-1.32,1.43-1.32v13.81 c0,0.96-0.28,1.73-0.85,2.3c-0.57,0.58-1.36,0.86-2.38,0.86C184.47,237.44,184.07,237.33,183.75,237.1z M186.55,217.84 c-0.25-0.24-0.37-0.53-0.37-0.87c0-0.35,0.12-0.64,0.37-0.87c0.25-0.24,0.55-0.35,0.9-0.35s0.65,0.12,0.9,0.35 c0.25,0.24,0.37,0.53,0.37,0.87c0,0.35-0.12,0.64-0.37,0.87c-0.25,0.24-0.55,0.35-0.9,0.35 C187.1,218.2,186.8,218.08,186.55,217.84z"></path> <path class="st1" d="M193.86,232.18c-0.72-0.35-1.29-0.85-1.7-1.49c-0.41-0.64-0.61-1.37-0.61-2.19v-3.76 c0-0.8,0.21-1.53,0.63-2.18s1-1.16,1.73-1.54s1.54-0.57,2.44-0.57c0.88,0,1.68,0.19,2.41,0.56s1.31,0.88,1.73,1.54 c0.42,0.65,0.63,1.38,0.63,2.16v1.63c0,0.17-0.07,0.33-0.22,0.46s-0.3,0.2-0.48,0.2h-7.47v1.47c0,0.93,0.29,1.66,0.88,2.19 s1.42,0.79,2.51,0.79c1.08,0,1.92-0.24,2.52-0.73c0.6-0.49,0.9-1.16,0.9-2.01c0.29,0,0.55,0.1,0.78,0.31s0.35,0.44,0.35,0.71 c0,0.5-0.21,0.99-0.64,1.45c-0.43,0.47-0.99,0.84-1.68,1.11c-0.69,0.28-1.43,0.41-2.21,0.41 C195.42,232.72,194.59,232.54,193.86,232.18z M199.75,225.79v-1.06c0-0.88-0.31-1.6-0.94-2.16s-1.44-0.84-2.45-0.84 s-1.82,0.28-2.45,0.84s-0.94,1.28-0.94,2.16v1.06H199.75z"></path> <path class="st1" d="M212.72,237.03c-0.69-0.28-1.25-0.64-1.67-1.09c-0.42-0.45-0.63-0.93-0.63-1.43c0-0.32,0.1-0.56,0.31-0.73 s0.48-0.26,0.81-0.26c0.02,0.79,0.33,1.43,0.96,1.94c0.62,0.5,1.43,0.76,2.44,0.76c1.11,0,1.96-0.28,2.53-0.84 s0.86-1.35,0.86-2.38v-1.75l0.45-0.57l-0.02-0.12c-0.53,0.6-1.14,1.07-1.84,1.41c-0.7,0.34-1.41,0.51-2.13,0.51 c-1.4,0-2.53-0.36-3.38-1.09c-0.85-0.72-1.28-1.69-1.28-2.88v-4.05c0-1.21,0.43-2.18,1.29-2.91c0.86-0.72,1.99-1.09,3.39-1.09 c1.53,0,2.84,0.69,3.94,2.06l0.05-0.09c-0.08-0.13-0.24-0.32-0.48-0.59c0-0.47,0.12-0.82,0.35-1.04s0.59-0.33,1.09-0.33v12.48 c0,0.88-0.2,1.67-0.61,2.35c-0.41,0.69-0.98,1.21-1.71,1.58c-0.73,0.37-1.57,0.56-2.51,0.56 C214.15,237.44,213.42,237.31,212.72,237.03z M216.59,230.85c0.52-0.24,0.93-0.56,1.24-0.96s0.47-0.83,0.47-1.29v-4.23 c0-0.47-0.15-0.91-0.45-1.31c-0.3-0.4-0.71-0.72-1.23-0.96c-0.52-0.24-1.08-0.35-1.68-0.35c-1.07,0-1.9,0.24-2.5,0.72 s-0.9,1.15-0.9,2.02v4c0,0.84,0.3,1.5,0.9,1.99s1.41,0.73,2.45,0.73C215.5,231.2,216.07,231.08,216.59,230.85z"></path> <path class="st1" d="M226.33,222.12c-0.47,0.25-0.84,0.59-1.11,1.03c-0.27,0.43-0.41,0.9-0.41,1.41v6.86c0,0.87-0.47,1.3-1.41,1.3 v-10.9c0-0.9,0.46-1.35,1.39-1.35v1.47c-0.22,0.25-0.39,0.47-0.5,0.66l0.07,0.09c1.05-1.48,2.33-2.22,3.84-2.22 c0.46,0,0.84,0.11,1.13,0.32c0.29,0.21,0.44,0.47,0.44,0.77c0,0.17-0.06,0.35-0.17,0.54c-0.48-0.24-1.06-0.35-1.74-0.35 C227.32,221.75,226.8,221.87,226.33,222.12z"></path> <path class="st1" d="M233.08,232.2c-0.75-0.35-1.33-0.82-1.74-1.43s-0.62-1.28-0.62-2.02v-4.23c0-0.74,0.21-1.42,0.62-2.03 s0.99-1.1,1.74-1.47c0.75-0.36,1.59-0.54,2.53-0.54s1.78,0.18,2.53,0.54c0.75,0.36,1.33,0.85,1.74,1.47 c0.41,0.61,0.62,1.29,0.62,2.03v4.23c0,0.74-0.21,1.41-0.62,2.02s-0.99,1.08-1.74,1.43s-1.59,0.52-2.53,0.52 C234.67,232.72,233.83,232.54,233.08,232.2z M238.16,230.69c0.64-0.51,0.96-1.17,0.96-1.97v-4.18c0-0.82-0.32-1.49-0.96-2.02 c-0.64-0.53-1.49-0.79-2.55-0.79c-1.07,0-1.92,0.26-2.56,0.79c-0.64,0.53-0.96,1.2-0.96,2.02v4.18c0,0.8,0.32,1.46,0.96,1.97 c0.64,0.51,1.49,0.77,2.56,0.77S237.53,231.21,238.16,230.69z"></path> <path class="st1" d="M245.36,232.18c-0.72-0.35-1.29-0.85-1.7-1.49c-0.41-0.64-0.61-1.37-0.61-2.19v-3.76 c0-0.8,0.21-1.53,0.63-2.18s1-1.16,1.73-1.54s1.54-0.57,2.44-0.57c0.88,0,1.68,0.19,2.41,0.56s1.31,0.88,1.73,1.54 c0.42,0.65,0.63,1.38,0.63,2.16v1.63c0,0.17-0.07,0.33-0.22,0.46s-0.3,0.2-0.48,0.2h-7.47v1.47c0,0.93,0.29,1.66,0.88,2.19 s1.42,0.79,2.51,0.79c1.08,0,1.92-0.24,2.52-0.73c0.6-0.49,0.9-1.16,0.9-2.01c0.29,0,0.55,0.1,0.78,0.31s0.35,0.44,0.35,0.71 c0,0.5-0.21,0.99-0.64,1.45c-0.43,0.47-0.99,0.84-1.68,1.11c-0.69,0.28-1.43,0.41-2.21,0.41 C246.92,232.72,246.09,232.54,245.36,232.18z M251.25,225.79v-1.06c0-0.88-0.31-1.6-0.94-2.16s-1.44-0.84-2.45-0.84 s-1.82,0.28-2.45,0.84s-0.94,1.28-0.94,2.16v1.06H251.25z"></path> <path class="st1" d="M256.07,217.84c-0.24-0.24-0.36-0.53-0.36-0.87c0-0.35,0.12-0.64,0.36-0.87c0.24-0.24,0.53-0.35,0.88-0.35 c0.35,0,0.65,0.12,0.9,0.35c0.25,0.24,0.37,0.53,0.37,0.87c0,0.35-0.12,0.64-0.37,0.87c-0.25,0.24-0.55,0.35-0.9,0.35 C256.6,218.2,256.31,218.08,256.07,217.84z M256.24,221.79c0-0.88,0.49-1.32,1.46-1.32v10.95c0,0.87-0.49,1.3-1.46,1.3V221.79z"></path> <path class="st1" d="M263.96,232.18c-0.72-0.35-1.29-0.85-1.7-1.49c-0.41-0.64-0.61-1.37-0.61-2.19v-3.76 c0-0.8,0.21-1.53,0.63-2.18c0.42-0.65,1-1.16,1.73-1.54c0.73-0.38,1.54-0.57,2.44-0.57c0.88,0,1.68,0.19,2.41,0.56 c0.73,0.37,1.31,0.88,1.73,1.54c0.42,0.65,0.63,1.38,0.63,2.16v1.63c0,0.17-0.07,0.33-0.22,0.46c-0.15,0.13-0.3,0.2-0.48,0.2 h-7.47v1.47c0,0.93,0.29,1.66,0.88,2.19c0.59,0.53,1.42,0.79,2.51,0.79c1.08,0,1.92-0.24,2.52-0.73c0.6-0.49,0.9-1.16,0.9-2.01 c0.29,0,0.55,0.1,0.78,0.31c0.23,0.21,0.35,0.44,0.35,0.71c0,0.5-0.21,0.99-0.64,1.45c-0.43,0.47-0.99,0.84-1.68,1.11 c-0.69,0.28-1.43,0.41-2.21,0.41C265.52,232.72,264.69,232.54,263.96,232.18z M269.85,225.79v-1.06c0-0.88-0.31-1.6-0.94-2.16 s-1.44-0.84-2.45-0.84s-1.82,0.28-2.45,0.84s-0.94,1.28-0.94,2.16v1.06H269.85z"></path> <path class="st1" d="M274.31,221.82c0-0.9,0.46-1.35,1.39-1.35v1.58c-0.11,0.11-0.26,0.29-0.45,0.54l0.05,0.09 c0.51-0.66,1.16-1.2,1.95-1.61c0.79-0.41,1.6-0.61,2.42-0.61c1.32,0,2.36,0.36,3.12,1.08s1.13,1.69,1.13,2.92v6.95 c0,0.87-0.47,1.3-1.41,1.3v-8.2c0-0.88-0.25-1.56-0.75-2.05c-0.5-0.48-1.25-0.72-2.23-0.72c-0.64,0-1.25,0.13-1.84,0.4 c-0.59,0.27-1.06,0.62-1.42,1.05s-0.54,0.89-0.54,1.36v6.86c0,0.87-0.47,1.3-1.41,1.3v-10.89H274.31z"></path> </g> </g> <path class="st2" d="M139.31,89.27c0.15-0.4,0.3-0.81,0.45-1.21c0.02-0.06,0.04-0.12,0.07-0.18c1.17-3.11,2.4-6.21,3.21-9.4 c-1.5,3.16-3.57,7.45-4.2,8.85c-0.66,1.02-7.29,9.9-5.81,11.97c4.9,6.83,7.45-3.67,7.79-4.6c-0.88-0.67-1.79-1.32-2.61-2.16 C138.54,91.45,138.91,90.36,139.31,89.27z"></path> <path class="st0" d="M143.15,117.9c-1.59-4.34-4.29-15-4.29-15s-0.27-7-4.14-7.6c-1.06-0.17-1.89-0.27-2.62-0.3l-0.05-1.82 c0.83-0.36,1.63-0.91,2.35-1.69c1.99-2.15,2.01-5.33,1.34-7.9c-0.62-2.35-1.4-4.92-1.93-6.53c0-0.01-0.01-0.02-0.01-0.03 c-0.05-0.15-0.1-0.29-0.14-0.43c-0.01-0.02-0.01-0.03-0.02-0.05c-0.04-0.12-0.08-0.24-0.12-0.34c-0.01-0.02-0.01-0.04-0.02-0.05 c-0.04-0.1-0.07-0.19-0.1-0.27c0-0.01-0.01-0.03-0.01-0.04c-0.03-0.09-0.06-0.16-0.09-0.22c0,0-12.37,3.58-12.69,4.07 c0.1,0.95,0.2,1.83,0.31,2.64l0,0c0.77,5.73,1.93,8.26,4.8,10.22c0.37,0.25,0.78,0.47,1.22,0.65l-0.16,2.59 c-0.12,0.03-0.23,0.07-0.35,0.11c-0.03,0.01-0.06,0.02-0.09,0.03c-1.13,0.36-2.38,0.93-3.29,1.84c-1.77-2.62-4.22-5.88-6.38-8.25 c-1.05-1.57-4.96-7.09-6.83-9.81c0.06-0.39,0.22-1.56,0.3-1.89c0.11-0.5,0.47-1.47,0.61-1.93c0.3-0.94-0.66-1.33-0.89-0.68 c-0.12,0.33-0.4,1.1-0.54,1.43c-0.2,0.46-0.46-0.35-0.51-0.55c-0.18-0.71-0.24-1.6-0.44-2.91c-0.17-1.09-1.12-0.66-1.09-0.12 c0.07,1.19,0.28,2.51,0.28,2.51s-0.74-1.61-1.43-2.89c-0.34-0.65-1.29-0.11-1.06,0.5c0.49,1.31,1.17,3.05,1.17,3.05 s-0.84-1.06-1.63-2.22c-0.45-0.66-1.1,0.11-0.79,0.62c0.55,0.91,1.61,2.85,1.61,2.85s-0.46-0.38-1.34-1.23 c-0.55-0.52-0.83,0.27-0.48,0.78c0.57,0.83,1.96,2.66,3.08,3.11c0.17,0.22,0.82,0.65,0.82,0.65s0.02,0,0.07-0.01 c0.78,2.52,3.43,8.01,5.47,10.97c1.57,2.99,5.29,9.06,9.42,10.65c0.61,2.53,1.68,5.79,2.33,6.92c1.05,1.81,0.4,9.52,0.29,12.52 c0.2,0.09,0.44,0.17,0.72,0.23c-0.04,0.26-0.08,0.49-0.11,0.7c-0.01,0.07-0.02,0.14-0.03,0.22c-0.06,0.43-0.09,0.7-0.09,0.7h0.01 c-0.38,3.49-0.34,9.59-0.36,10.74c-0.05,3.09,4.75,3.55,5.92,1.68c1.47-2.35,2.39-8.02,3.04-11.18c0.02,2.33,0.63,7.84,0.94,10.58 c-1.98,4.81-6.66,13.77-7.31,15.02c-2.25,1.77-3.41,2.04-4.1,3.23l0,0c-0.01,0.02-0.03,0.05-0.04,0.08 c-0.03,0.05-0.06,0.11-0.08,0.16c-0.03,0.05-0.05,0.11-0.07,0.16s-0.05,0.11-0.07,0.17c-0.03,0.07-0.05,0.15-0.08,0.22 c-0.02,0.05-0.04,0.1-0.05,0.15c-0.04,0.14-0.08,0.28-0.12,0.43c0.4,1.14,2.25,2.54,3.13,3.36c2.14,1.99,3.33,3.48,4.47,3.36 c0.08-0.01,0.18-0.03,0.28-0.05h0.01c0.61-0.15,1.45-0.6,1.09-1.13c-0.83-1.22-1.22-1.33-1.51-2.58c-0.38-1.61-0.57-4.04-0.62-4.62 c0.06-0.02,0.12-0.04,0.19-0.06c5.32-4.53,9.23-9.11,10.98-15.71c0.1-0.2,0.17-0.42,0.22-0.67c0.49-2.67,1.27-8.86,1.17-12.07h0.02 c0,0,0-0.01,0-0.04c0-0.35-0.01-3.54-0.24-6.31C142.79,118.36,143.05,118.12,143.15,117.9z"></path> <linearGradient id="SVGID_1_" gradientUnits="userSpaceOnUse" x1="14.2098" y1="176.0572" x2="34.6371" y2="198.0165" gradientTransform="matrix(0.9985 -0.0552 -0.0552 -0.9985 106.6055 204.8013)"> <stop offset="4.973691e-03" style="stop-color:#4EBBC1"></stop> <stop offset="1" style="stop-color:#34A7B4"></stop> </linearGradient> <path class="st3" d="M128.77,17.29c1.25,7.72-1.5,15.06-6.71,19.98c-6.53-3.29-11.48-9.57-12.72-17.29 c-1.25-7.72,1.5-15.06,6.71-19.98C122.58,3.29,127.52,9.58,128.77,17.29z"></path> <linearGradient id="SVGID_2_" gradientUnits="userSpaceOnUse" x1="48.2661" y1="134.5103" x2="70.4194" y2="158.3251" gradientTransform="matrix(0.9985 -0.0552 -0.0552 -0.9985 106.6055 204.8013)"> <stop offset="0" style="stop-color:#4EBBC1"></stop> <stop offset="1" style="stop-color:#34A7B4"></stop> </linearGradient> <path class="st4" d="M173.98,47.74c-4,4.63-9.79,6.72-15.36,6.14c-1.32-5.51-0.04-11.59,3.97-16.22c4-4.63,9.79-6.72,15.36-6.14 C179.27,37.03,177.99,43.11,173.98,47.74z"></path> <path class="st5" d="M171.18,90.16c-6.55,1.04-12.78-1.23-16.95-5.56c2.8-5.44,8.14-9.56,14.68-10.6 c6.55-1.04,12.78,1.23,16.95,5.56C183.07,85,177.73,89.12,171.18,90.16z"></path> <path class="st6" d="M152.31,25.29c-1.32,5.95-5.43,10.5-10.63,12.59c-3.79-4.24-5.55-10.19-4.23-16.14s5.43-10.5,10.63-12.59 C151.87,13.38,153.63,19.34,152.31,25.29z"></path> <path class="st7" d="M167.48,24.27c-1.97,2.51-4.86,3.74-7.68,3.58c-0.72-2.83-0.14-6.02,1.82-8.53c1.97-2.51,4.87-3.74,7.68-3.58 C170.02,18.57,169.44,21.76,167.48,24.27z"></path> <path class="st7" d="M120.6,48.37c0.82,3.07,0.05,6.1-1.8,8.22c-2.71-1.15-4.92-3.54-5.74-6.61s-0.05-6.1,1.8-8.22 C117.57,42.91,119.78,45.31,120.6,48.37z"></path> <path class="st5" d="M147.08,56.78c-2.32,3.47-5.98,5.38-9.68,5.45c-1.23-3.63-0.8-7.86,1.52-11.34c2.32-3.47,5.98-5.38,9.68-5.45 C149.83,49.08,149.4,53.31,147.08,56.78z"></path> <path class="st7" d="M156.13,105.8c-3.58-2.18-5.62-5.74-5.8-9.4c3.62-1.34,7.91-1.06,11.49,1.12s5.62,5.74,5.8,9.4 C164,108.26,159.71,107.98,156.13,105.8z"></path> <path class="st7" d="M177.52,67.16c-4.4,1.85-9.08,1.37-12.62-0.87c1.14-4.21,4.24-7.95,8.64-9.79c4.4-1.85,9.08-1.37,12.62,0.87 C185.02,61.57,181.92,65.31,177.52,67.16z"></path> <linearGradient id="SVGID_3_" gradientUnits="userSpaceOnUse" x1="1.2894" y1="177.8174" x2="23.4556" y2="201.6463" gradientTransform="matrix(0.9985 -0.0552 -0.0552 -0.9985 106.6055 204.8013)"> <stop offset="0" style="stop-color:#4EBBC1"></stop> <stop offset="1" style="stop-color:#34A7B4"></stop> </linearGradient> <path class="st8" d="M70.58,61.63c5.1,3.39,11.25,3.86,16.46,1.82c-0.22-5.66-3.09-11.17-8.2-14.56s-11.25-3.86-16.46-1.82 C62.6,52.72,65.48,58.24,70.58,61.63z"></path> <path class="st6" d="M85.53,100.48c6.44-1.58,11.28-6.1,13.4-11.7c-4.72-3.92-11.26-5.63-17.69-4.05c-6.44,1.58-11.28,6.1-13.4,11.7 C72.56,100.35,79.1,102.07,85.53,100.48z"></path> <path class="st7" d="M88.27,33.26c3.43,5.05,8.93,7.79,14.54,7.84c1.96-5.32,1.4-11.5-2.03-16.56c-3.43-5.05-8.93-7.79-14.54-7.84 C84.29,22.02,84.84,28.21,88.27,33.26z"></path> <path class="st6" d="M68.78,35.42c2.25,2.26,5.28,3.14,8.05,2.64c0.38-2.9-0.57-6-2.83-8.25c-2.25-2.25-5.28-3.14-8.05-2.64 C65.57,30.06,66.52,33.16,68.78,35.42z"></path> <linearGradient id="SVGID_4_" gradientUnits="userSpaceOnUse" x1="17.5295" y1="165.6489" x2="39.6607" y2="189.4399" gradientTransform="matrix(0.9985 -0.0552 -0.0552 -0.9985 106.6055 204.8013)"> <stop offset="0" style="stop-color:#4EBBC1"></stop> <stop offset="1" style="stop-color:#34A7B4"></stop> </linearGradient> <path class="st9" d="M96.31,60.42c2.96,2.95,6.93,4.11,10.57,3.45c0.5-3.8-0.76-7.86-3.72-10.82c-2.96-2.95-6.93-4.11-10.57-3.45 C92.09,53.4,93.35,57.47,96.31,60.42z"></path> <path class="st5" d="M103.88,109.15c2.43-3.4,2.9-7.47,1.63-10.91c-3.86,0.17-7.69,2.1-10.13,5.5c-2.43,3.4-2.9,7.47-1.63,10.91 C97.62,114.48,101.45,112.55,103.88,109.15z"></path> <path class="st5" d="M73.31,81.27c4.78-0.19,8.8-2.59,11.05-6.12c-2.83-3.33-7.24-5.4-12.02-5.22c-4.78,0.19-8.8,2.59-11.05,6.12 C64.13,79.38,68.54,81.45,73.31,81.27z"></path> <g> <path class="st2" d="M119.47,83.4c0.29,1.01,0.52,2.6-0.21,4.11l1.13-0.65c0.17,1.49-0.89,2.97-0.89,2.97s1.29-0.77,2.01-2.12 c0.12,0.09,0.23,0.17,0.36,0.24c0.11,0.06,0.23,0.11,0.36,0.16c0.77,2.01,1.86,3.32,3.51,4.45c1.8,1.22,4.67,1.37,7.12,0.08 c-2.24,0.36-4.95-0.05-6.62-1.64c-1.65-1.56-2.57-3.33-3.14-5.54c-0.05-0.19-0.1-0.38-0.14-0.58c6.67,0.96,7.7-2.91,7.7-2.91 s-2.3,0.2-2.9-0.3c2.12,0.2,3.91-0.53,5.54-0.65c-0.38-1.01-1.14-1.46-1.79-1.68c0.36-0.02,0.69-0.07,1.01-0.14 c0.89,0.56,1.79,1.32,2.58,2.05c0.22,0.77,0.44,1.56,0.64,2.33c0.12,0.45,0.22,0.93,0.28,1.41c0.15-0.13,0.27-0.27,0.36-0.41 c0.55-0.81,0.61-2.29-0.28-3.12c-0.13-1.19-0.38-2.76-0.55-3.75c1.15-1,1.6-2.09,1.6-2.09s-1.73,0-3.33-0.58 c-1.56-0.56-2.23-0.44-2.3-0.42c0.09-0.04,1.44-0.5,1.5-0.65c-1.17-1.22-3.12-1.22-4.64-1.3c-2.77-0.15-4.77,0.28-6.97,2.7 c-2.88,0.23-3.71,3.68-3.13,5.8C118.57,82.15,118.96,82.86,119.47,83.4z"></path> <path class="st2" d="M134.2,125.04c0.04,2.39,0.64,7.78,0.94,10.47c-1.98,4.81-6.66,13.79-7.31,15.03 c-2.25,1.77-3.41,2.04-4.1,3.22l0,0c-0.01,0.02-0.03,0.05-0.04,0.08c-0.03,0.05-0.06,0.1-0.08,0.16c-0.03,0.05-0.05,0.11-0.07,0.16 s-0.05,0.11-0.07,0.16c-0.03,0.07-0.05,0.15-0.08,0.23c-0.02,0.05-0.03,0.1-0.05,0.15c-0.04,0.14-0.08,0.28-0.12,0.43 c0.15,0.44,0.53,0.93,0.98,1.4c0.79-1.24,1.85-2.69,3.68-4.37c3.02-4.46,6.24-9.26,7.67-14.26l0,0v-0.01v-0.01 c0.1-0.34,0.18-0.68,0.26-1.02c0.02-0.08,0.04-0.17,0.06-0.25c0.08-0.34,0.14-0.69,0.2-1.03c0-0.01,0-0.01,0-0.02 c0.06-0.35,0.1-0.7,0.14-1.05c0-0.04,0.01-0.08,0.02-0.12l0,0C136.51,131.32,135.99,128.19,134.2,125.04z"></path> <path class="st2" d="M131.51,134.11c-1.3-1.37-2.89-2.4-4.57-3.2c-0.27-2.29-0.08-4.74,0.2-7.06c3.29-2.6,10.69-1.54,15.38-3.48 c-0.03-0.58-0.07-1.18-0.11-1.76l0,0c-1.47,0.95-4.8,2.05-8.21,2.79c-5.76-6.9-7.66-16.23-8.84-25.11 c-0.31,0.13-0.62,0.28-0.92,0.45c-1.3-1.42-4.2-3.64-5.11-4.09c-0.03,0.76-0.5,2.35-1.21,3.89c-1.08-1.28-2.09-2.63-3.06-4.01l0,0 c-0.3-0.43-0.6-0.87-0.89-1.3c-0.05-0.07-0.1-0.15-0.15-0.22c-2.2-3.3-4.21-6.74-6.34-10c0.85,2.6,3.41,7.85,5.39,10.74 c0.85,1.63,2.35,4.18,4.2,6.42l0,0c0.67,1.24,3.69,5.66,5.71,6.11c0.59,2.08,1.34,4.19,1.84,5.06c1.05,1.81,0.4,9.52,0.29,12.52 c0.2,0.09,0.44,0.17,0.72,0.23c-0.04,0.25-0.08,0.47-0.11,0.68c-0.01,0.08-0.03,0.17-0.04,0.25c-0.06,0.42-0.09,0.68-0.09,0.68 h0.01c-0.2,1.82-0.28,4.35-0.32,6.51c-1.92-0.74-3.86-1.23-5.53-1.6c-1.03-0.75-1.95-1.3-2.96-1.29c0.01,0,0.01-0.01,0.02-0.01 c-0.37-0.06-0.73-0.13-1.23,0.09c-1.04,0.47-1.8,2.62-2.23,3.66c-1.06,2.53-1.63,4.32-1.17,5.27c0.13,0.28,0.48,0.62,0.82,0.8 c-0.01-0.02-0.01-0.04-0.02-0.05c0.22,0.11,0.5,0.18,0.84,0.19c0.98,0.03,3.39-3.43,4.41-4.57c3.22,2.15,6.45,4.18,9.56,5.5 C130.33,139.27,132.27,134.91,131.51,134.11z M133.94,121.45L133.94,121.45c-0.04,0.01-0.08,0.02-0.12,0.02 c0.06-0.01,0.11-0.02,0.17-0.04C133.98,121.45,133.96,121.45,133.94,121.45z M128.33,122.23c0.07,0,0.13-0.01,0.2-0.01 C128.47,122.22,128.4,122.22,128.33,122.23z M129.19,122.17c0.07-0.01,0.13-0.01,0.2-0.02 C129.32,122.16,129.26,122.17,129.19,122.17z M129.74,122.13c0.08-0.01,0.16-0.02,0.24-0.02 C129.9,122.11,129.82,122.12,129.74,122.13z M130.32,122.06c0.08-0.01,0.16-0.02,0.25-0.03 C130.49,122.04,130.41,122.05,130.32,122.06z M130.93,121.98c0.08-0.01,0.16-0.02,0.24-0.03 C131.1,121.96,131.01,121.97,130.93,121.98z M131.55,121.89c0.07-0.01,0.14-0.02,0.21-0.03 C131.69,121.87,131.62,121.88,131.55,121.89z M133.24,121.6c0.04-0.01,0.09-0.02,0.13-0.02 C133.33,121.58,133.28,121.59,133.24,121.6z M126.59,122.19c-0.05-0.01-0.1-0.01-0.16-0.02 C126.49,122.18,126.54,122.19,126.59,122.19z"></path> </g> </svg> 